<?xml version="1.0" standalone="no"?><!DOCTYPE svg PUBLIC "-//W3C//DTD SVG 1.1//EN" "http://www.w3.org/Graphics/SVG/1.1/DTD/svg11.dtd"><svg t="1652795141359" class="icon" viewBox="0 0 1116 1024" version="1.1" xmlns="http://www.w3.org/2000/svg" p-id="3515" xmlns:xlink="http://www.w3.org/1999/xlink" width="217.96875" height="200"><defs><style type="text/css">@font-face { font-family: 宋体; src: local("LXGW WenKai"); }
@font-face { font-family: 新宋体; src: local("LXGW WenKai"); }
@font-face { font-family: 黑体; src: local("LXGW WenKai"); }
@font-face { font-family: 微软雅黑; src: local("LXGW WenKai"); }
@font-face { font-family: 微軟正黑體; src: local("LXGW WenKai"); }
@font-face { font-family: SimSun; src: local("LXGW WenKai"); }
@font-face { font-family: NSimSun; src: local("LXGW WenKai"); }
@font-face { font-family: SimHei; src: local("LXGW WenKai"); }
@font-face { font-family: "Heiti SC"; src: local("LXGW WenKai"); }
@font-face { font-family: "HanHei SC"; src: local("LXGW WenKai"); }
@font-face { font-family: MingLiU; src: local("LXGW WenKai"); }
@font-face { font-family: MingLiU-ExtB; src: local("LXGW WenKai"); }
@font-face { font-family: PMingLiU; src: local("LXGW WenKai"); }
@font-face { font-family: PMingLiU-ExtB; src: local("LXGW WenKai"); }
@font-face { font-family: Roboto; src: local("LXGW WenKai"); }
@font-face { font-family: RobotoDraft; src: local("LXGW WenKai"); }
@font-face { font-family: "Noto Sans"; src: local("LXGW WenKai"); }
@font-face { font-family: Helvetica; src: local("LXGW WenKai"); }
@font-face { font-family: "Helvetica Neue"; src: local("LXGW WenKai"); }
@font-face { font-family: "Lucida Grande"; src: local("LXGW WenKai"); }
@font-face { font-family: Arial; src: local("LXGW WenKai"); }
@font-face { font-family: Verdana; src: local("LXGW WenKai"); }
@font-face { font-family: Ubuntu; src: local("LXGW WenKai"); }
@font-face { font-family: "Segoe UI"; src: local("LXGW WenKai"); }
@font-face { font-family: "Open Sans"; src: local("LXGW WenKai"); }
:not(i):not(.fa):not([class*="icon"]):not([class*="vjs-"]):not([class*="glyph"]) { font-family: "LXGW WenKai", "Microsoft YaHei", system-ui, -apple-system, BlinkMacSystemFont, sans-serif, iconfont, icomoon, FontAwesome, IcoFont, "Material Icons Extended", "Apple Color Emoji", "Segoe UI Emoji", "Segoe UI Symbol", "Noto Color Emoji", "Android Emoji", EmojiSymbols, "emojione mozilla", "twemoji mozilla"; text-shadow: rgba(164, 160, 154, 0.85) 0px 0px 0.47px, rgba(123, 123, 123, 0.8) 0px 0px 0.41px, rgba(48, 47, 45, 0.27) 0px 0px 0.31px; -webkit-text-stroke: 0.35px currentcolor; font-feature-settings: "liga" 0; font-variant: no-common-ligatures proportional-nums; font-optical-sizing: auto; font-kerning: auto; -webkit-font-smoothing: antialiased !important; text-rendering: optimizelegibility !important; }
</style></defs><path d="M973.014646 0H144.913723A143.517538 143.517538 0 0 0 1.435569 143.478154v678.4a43.323077 43.323077 0 0 0 0 21.819077v36.785231a143.517538 143.517538 0 0 0 143.478154 143.478153h828.140308a143.517538 143.517538 0 0 0 143.478154-143.478153V143.478154A143.517538 143.517538 0 0 0 973.014646 0zM144.874338 87.315692h828.140308a56.32 56.32 0 0 1 56.162462 56.162462v544.925538a964.923077 964.923077 0 0 0-112.600616-129.96923 103.030154 103.030154 0 0 0-87.630769-27.569231c-52.105846 7.483077-109.174154 50.845538-174.355692 132.253538-15.753846 19.337846-29.617231 38.675692-41.156923 55.138462-57.383385-79.241846-170.299077-225.516308-266.043077-292.903385a100.706462 100.706462 0 0 0-92.632616-14.020923 222.483692 222.483692 0 0 0-104.487384 91.372308 826.446769 826.446769 0 0 0-61.755077 106.062769V143.478154a56.359385 56.359385 0 0 1 56.398769-56.162462z" p-id="3516"></path><path d="M741.393723 299.126154a100.706462 100.706462 0 1 0 100.706462-100.667077 100.706462 100.706462 0 0 0-100.706462 100.667077z" p-id="3517"></path></svg>